<svg width="33" height="32" viewBox="0 0 33 32" fill="none" xmlns="http://www.w3.org/2000/svg">
<path fill-rule="evenodd" clip-rule="evenodd" d="M25.7223 18.6496C26.0872 18.8635 26.5585 18.7447 26.775 18.3842C27.8631 16.5729 28.4882 14.4591 28.4882 12.2055C28.4882 5.51473 22.9808 1.90735e-06 16.1967 1.90735e-06C9.41262 1.90735e-06 3.90527 5.51473 3.90527 12.2055C3.90527 13.6644 4.16728 15.0655 4.64785 16.3641C4.79352 16.7578 5.23464 16.9602 5.63313 16.8163C6.03161 16.6724 6.23655 16.2366 6.09088 15.843C5.6711 14.7086 5.44171 13.4838 5.44171 12.2055C5.44171 6.34202 10.2722 1.51778 16.1967 1.51778C22.1212 1.51778 26.9517 6.34202 26.9517 12.2055C26.9517 14.1784 26.4052 16.0257 25.4537 17.6097C25.2372 17.9702 25.3575 18.4357 25.7223 18.6496Z" fill="#E3712D"/>
<path fill-rule="evenodd" clip-rule="evenodd" d="M7.82256 21.0866C10.0178 23.1079 12.9638 24.3477 16.1969 24.3477C19.2109 24.3477 21.9758 23.2701 24.1153 21.486C24.4395 21.2157 24.4805 20.7369 24.2068 20.4166C23.9332 20.0963 23.4485 20.0558 23.1243 20.3262C21.2507 21.8885 18.8337 22.8299 16.1969 22.8299C13.3689 22.8299 10.7931 21.7469 8.87013 19.9763C8.55977 19.6905 8.07366 19.7074 7.78438 20.014C7.4951 20.3206 7.51219 20.8008 7.82256 21.0866Z" fill="#E3712D"/>
<path fill-rule="evenodd" clip-rule="evenodd" d="M1.64252 31.7897C3.01026 32.3608 4.58775 31.7286 5.166 30.3775L5.16602 30.3774C5.74418 29.0263 5.10418 27.468 3.73642 26.8967L3.73638 26.8967C2.36863 26.3256 0.79115 26.9578 0.212895 28.3089L0.212879 28.309C-0.365285 29.6601 0.274722 31.2185 1.64248 31.7897L1.64252 31.7897ZM1.62805 28.9C1.38029 29.479 1.65457 30.1469 2.24073 30.3917L1.62805 28.9ZM2.24077 30.3917C2.82696 30.6365 3.50299 30.3655 3.75083 29.7865L2.24077 30.3917ZM3.75085 29.7864C3.99861 29.2074 3.72433 28.5395 3.13817 28.2947L3.75085 29.7864ZM3.13813 28.2947C2.55194 28.0499 1.87591 28.3209 1.62807 28.8999L3.13813 28.2947Z" fill="#E3712D"/>
<path fill-rule="evenodd" clip-rule="evenodd" d="M25.0245 20.1055C24.4546 20.3853 23.7629 20.1557 23.4797 19.5927L20.0608 12.7968C19.872 12.4215 19.4109 12.2684 19.031 12.4549C18.651 12.6415 18.4961 13.0969 18.6849 13.4723L22.1038 20.2682L22.1038 20.2682C22.7647 21.5818 24.3785 22.1175 25.7083 21.4647C27.038 20.8118 27.5803 19.2177 26.9194 17.904L26.9194 17.904L23.5005 11.1081C23.3117 10.7327 22.8506 10.5797 22.4707 10.7662C22.0907 10.9528 21.9358 11.4082 22.1246 11.7836L25.5436 18.5795C25.5436 18.5795 25.5436 18.5795 25.5436 18.5795C25.8268 19.1425 25.5944 19.8257 25.0245 20.1055Z" fill="#E3712D"/>
<path fill-rule="evenodd" clip-rule="evenodd" d="M20.3949 16.8703C20.5837 17.2456 21.0448 17.3987 21.4247 17.2122L24.8644 15.5234C25.2444 15.3369 25.3993 14.8814 25.2105 14.5061C25.0216 14.1308 24.5606 13.9777 24.1806 14.1643L20.7409 15.853C20.361 16.0395 20.2061 16.495 20.3949 16.8703Z" fill="#E3712D"/>
<path fill-rule="evenodd" clip-rule="evenodd" d="M30.9006 31.7219C29.5708 32.3747 27.9571 31.8391 27.2962 30.5254L30.9006 31.7219ZM29.1911 28.3239C28.6212 28.6037 28.3889 29.2869 28.6721 29.8499L29.1911 28.3239ZM28.6721 29.85C28.9554 30.4129 29.6469 30.6425 30.2168 30.3627L30.2168 30.3627C30.7867 30.0829 31.0191 29.3997 30.7359 28.8367C30.4526 28.2737 29.7611 28.0441 29.1911 28.3239M30.9006 31.7218C32.2304 31.069 32.7727 29.4749 32.1118 28.1612C31.4509 26.8476 29.8372 26.3119 28.5073 26.9647L28.5073 26.9648C27.1775 27.6176 26.6353 29.2118 27.2962 30.5254L27.2962 30.5254" fill="#E3712D"/>
<path fill-rule="evenodd" clip-rule="evenodd" d="M29.1934 28.3226C29.5726 28.1347 29.7258 27.6786 29.5356 27.304L26.0527 20.4449C25.8625 20.0702 25.4008 19.9189 25.0216 20.1068C24.6424 20.2947 24.4891 20.7507 24.6794 21.1254L28.1623 27.9845C28.3525 28.3592 28.8141 28.5105 29.1934 28.3226Z" fill="#E3712D"/>
<path fill-rule="evenodd" clip-rule="evenodd" d="M3.13688 28.2942C3.52735 28.4581 3.97842 28.2783 4.14437 27.8926L7.19969 20.791C7.36564 20.4053 7.18364 19.9597 6.79316 19.7957C6.40269 19.6318 5.95162 19.8116 5.78567 20.1973L2.73035 27.2989C2.5644 27.6847 2.7464 28.1303 3.13688 28.2942Z" fill="#E3712D"/>
<path fill-rule="evenodd" clip-rule="evenodd" d="M9.36923 20.6111C10.3181 19.9271 11.162 18.8403 11.7231 17.529L11.7231 17.529C12.2843 16.2177 12.4854 14.8625 12.321 13.7136C12.159 12.5821 11.6097 11.5083 10.5308 11.0577C9.45186 10.6071 8.2894 10.9661 7.35494 11.6397C6.40607 12.3237 5.56219 13.4105 5.00106 14.7218C4.43989 16.0331 4.23875 17.3883 4.4032 18.5373C4.56516 19.6688 5.11451 20.7425 6.19339 21.1931L6.19342 21.1932C7.27234 21.6437 8.43479 21.2848 9.36923 20.6111ZM6.7917 19.7952C7.17821 19.9566 7.76098 19.8916 8.46352 19.3851C9.15167 18.889 9.83657 18.0395 10.308 16.938C10.7793 15.8366 10.9189 14.7593 10.7997 13.9261C10.6779 13.0753 10.319 12.6171 9.93251 12.4557C9.54598 12.2943 8.96319 12.3593 8.26063 12.8657C7.57248 13.3618 6.88758 14.2113 6.41624 15.3128L6.41623 15.3128C5.94485 16.4143 5.80523 17.4915 5.9245 18.3248C6.04627 19.1754 6.40513 19.6337 6.79167 19.7952" fill="#E3712D"/>
<path fill-rule="evenodd" clip-rule="evenodd" d="M15.6913 11.828C15.9809 12.0783 16.4134 12.0783 16.7031 11.828C17.0287 11.5465 17.3483 11.2774 17.6551 11.0191C18.3785 10.4101 19.0313 9.86048 19.5277 9.3467C20.2564 8.59242 20.8065 7.76388 20.8065 6.69588C20.8065 5.2421 19.7673 3.8577 18.1177 3.8577C17.2239 3.8577 16.5993 4.29107 16.1972 4.74084C15.7951 4.29107 15.1704 3.8577 14.2766 3.8577C12.6271 3.8577 11.5879 5.2421 11.5879 6.69588C11.5879 7.76388 12.1379 8.59242 12.8667 9.3467C13.3631 9.86048 14.0159 10.4101 14.7392 11.0191C15.0461 11.2774 15.3656 11.5465 15.6913 11.828ZM15.4575 6.48158C15.5504 6.80896 15.8526 7.03554 16.1972 7.03554C16.5417 7.03554 16.844 6.80895 16.9369 6.48156C16.937 6.48127 16.9371 6.48087 16.9372 6.48036C16.9374 6.47979 16.9376 6.47908 16.9379 6.47823C16.9395 6.4729 16.9428 6.46232 16.948 6.44724C16.9583 6.41693 16.9756 6.36942 17.0005 6.31057C17.0514 6.19066 17.1292 6.03553 17.2369 5.88537C17.4541 5.58261 17.7297 5.37548 18.1177 5.37548C18.7421 5.37548 19.27 5.89449 19.27 6.69588C19.27 7.18726 19.0385 7.65468 18.4162 8.29878C17.9766 8.75378 17.4195 9.22266 16.7335 9.80005C16.5628 9.94374 16.3841 10.0941 16.1972 10.2527C16.0103 10.0941 15.8316 9.94374 15.6609 9.80005C14.9748 9.22266 14.4177 8.75378 13.9781 8.29878C13.3558 7.65468 13.1243 7.18726 13.1243 6.69588C13.1243 5.89449 13.6523 5.37548 14.2766 5.37548C14.6647 5.37548 14.9403 5.58261 15.1575 5.88537C15.2652 6.03553 15.343 6.19066 15.3938 6.31057C15.4188 6.36942 15.4361 6.41693 15.4464 6.44724C15.4515 6.46232 15.4549 6.4729 15.4565 6.47823C15.457 6.47984 15.4573 6.48096 15.4575 6.48158Z" fill="#E3712D"/>
</svg>
