<svg width="100" height="100" viewBox="0 0 100 100" fill="none" xmlns="http://www.w3.org/2000/svg">
<g clip-path="url(#clip0_41_186)">
<path d="M84.7727 30.2836C84.1166 30.2419 83.4591 30.3396 82.8434 30.5702C82.6007 30.6612 82.323 30.5558 82.2093 30.3228C81.4514 28.771 79.8578 27.702 78.0147 27.702C77.671 27.702 77.336 27.7395 77.0136 27.8106C76.9364 27.8286 76.8562 27.8287 76.7789 27.8111C76.7016 27.7934 76.6294 27.7584 76.5677 27.7087C76.506 27.6589 76.4564 27.5958 76.4227 27.5241C76.389 27.4524 76.3721 27.3739 76.3733 27.2946L76.3735 27.264C76.3735 24.6873 74.2846 22.5985 71.708 22.5985C70.6988 22.5969 69.7165 22.9241 68.9099 23.5306C68.6189 23.749 68.202 23.614 68.1014 23.2644C67.5411 21.3166 65.7464 19.8916 63.6181 19.8916C61.4899 19.8916 59.6951 21.3166 59.1349 23.2644C59.0343 23.614 58.6173 23.749 58.3264 23.5306C57.5197 22.9241 56.5375 22.5969 55.5282 22.5985C52.9516 22.5985 50.8628 24.6873 50.8628 27.264L50.863 27.2946C50.8641 27.3739 50.8472 27.4524 50.8135 27.5241C50.7798 27.5958 50.7302 27.6589 50.6685 27.7087C50.6068 27.7584 50.5346 27.7934 50.4573 27.8111C50.3801 27.8287 50.2998 27.8286 50.2226 27.8106C49.8938 27.7383 49.5582 27.7019 49.2216 27.702C47.3782 27.702 45.7847 28.771 45.0269 30.3228C44.9131 30.5558 44.6356 30.6614 44.3926 30.5702C43.7775 30.3398 43.1205 30.2421 42.4649 30.2836C40.1355 30.4263 38.2398 32.3233 38.1004 34.6528C37.9383 37.3597 40.0855 39.6053 42.7573 39.6053H84.4792C87.1503 39.6053 89.2973 37.3605 89.1362 34.6543C88.9974 32.3247 87.1021 30.4271 84.7727 30.2836Z" fill="#F9F6F6"/>
<path d="M89.1362 34.6544C88.9975 32.3248 87.1022 30.427 84.7728 30.2834C84.1168 30.2418 83.4593 30.3395 82.8437 30.5701C82.601 30.6611 82.3233 30.5557 82.2094 30.3227C81.4517 28.7709 79.8579 27.7019 78.0148 27.7019C77.6711 27.7019 77.3362 27.7394 77.0137 27.8105C76.9366 27.8284 76.8563 27.8286 76.779 27.811C76.7018 27.7933 76.6295 27.7583 76.5678 27.7085C76.5061 27.6588 76.4565 27.5957 76.4228 27.524C76.3892 27.4522 76.3722 27.3738 76.3734 27.2945V27.2639C76.3734 24.6872 74.2846 22.5984 71.7079 22.5984C70.6987 22.5968 69.7165 22.924 68.9098 23.5305C68.6188 23.7488 68.2019 23.6139 68.1013 23.2643C67.541 21.3165 65.7463 19.8915 63.6181 19.8915C61.7023 19.8915 60.0601 21.048 59.3418 22.6994C59.5201 22.6776 59.6994 22.6661 59.879 22.665C62.0071 22.665 63.8018 24.09 64.3623 26.0378C64.4629 26.3874 64.88 26.5223 65.1708 26.304C65.9774 25.6975 66.9597 25.3703 67.9689 25.3719C70.5456 25.3719 72.6344 27.4607 72.6344 30.0374V30.068C72.6332 30.1473 72.6501 30.2257 72.6838 30.2975C72.7175 30.3692 72.7671 30.4323 72.8288 30.4821C72.8905 30.5318 72.9628 30.5668 73.04 30.5845C73.1173 30.6021 73.1975 30.602 73.2747 30.584C73.6035 30.5117 73.9392 30.4753 74.2758 30.4754C76.1191 30.4754 77.7127 31.5444 78.4704 33.0962C78.5843 33.3292 78.8618 33.4348 79.1047 33.3436C79.7203 33.113 80.3777 33.0153 81.0338 33.0569C83.3632 33.2005 85.2583 35.0981 85.3971 37.4277C85.4426 38.1932 85.3034 38.9219 85.0198 39.5732C87.4334 39.2947 89.2863 37.1752 89.1362 34.6544Z" fill="#ECECEC"/>
<path d="M72.9026 73.6742H54.3345C45.5931 73.6742 38.5068 66.5879 38.5068 57.8465V45.5275H88.7302V57.8465C88.7302 66.5879 81.644 73.6742 72.9026 73.6742Z" fill="#147D58"/>
<path d="M38.5068 45.5273V49.8237H76.6018C80.5839 49.8237 83.8123 53.0521 83.8123 57.0342V57.8464C83.8123 66.5878 76.726 73.674 67.9846 73.674H72.9028C81.6442 73.674 88.7304 66.5878 88.7304 57.8464V45.5273H38.5068Z" fill="#0D6848"/>
<path d="M90.5794 45.5273H36.658C34.6395 45.5273 33.0029 43.891 33.0029 41.8723V39.8801C33.0029 37.8616 34.6393 36.2251 36.658 36.2251H90.5794C92.5979 36.2251 94.2344 37.8614 94.2344 39.8801V41.8725C94.2344 43.891 92.5979 45.5273 90.5794 45.5273Z" fill="#147D58"/>
<path d="M90.5788 36.2251H86.209C88.2275 36.2251 89.864 37.8614 89.864 39.8801V41.8725C89.864 43.891 88.2277 45.5275 86.209 45.5275H90.5788C92.5973 45.5275 94.2338 43.8912 94.2338 41.8725V39.8801C94.2338 37.8614 92.5973 36.2251 90.5788 36.2251Z" fill="#0D6848"/>
<path d="M18.3974 93.3315H5.40637C3.22948 93.3315 1.46484 91.5669 1.46484 89.39V59.2836C1.46484 57.1067 3.22948 55.342 5.40637 55.342H18.3974C20.5743 55.342 22.339 57.1067 22.339 59.2836V89.39C22.339 91.5669 20.5743 93.3315 18.3974 93.3315Z" fill="#F69E5E"/>
<path d="M18.3971 55.342H13.4951C15.672 55.342 17.4366 57.1067 17.4366 59.2836V89.39C17.4366 91.5669 15.672 93.3315 13.4951 93.3315H18.3971C20.574 93.3315 22.3386 91.5669 22.3386 89.39V59.2836C22.3386 57.1067 20.574 55.342 18.3971 55.342Z" fill="#EA8740"/>
<path d="M91.9786 58.2377L75.5049 67.5042C71.9883 69.4823 68.0215 70.5214 63.9867 70.5214H48.6885C47.2348 70.5214 46.445 68.8214 47.3828 67.7104L54.4581 59.3288C55.0415 58.6377 55.405 57.788 55.502 56.8888C55.599 55.9896 55.425 55.0819 55.0024 54.2823C53.792 51.992 50.9127 51.1786 48.6827 52.4968L42.6433 56.0667C41.7189 56.6131 40.6648 56.9014 39.5909 56.9013H33.5903C32.2249 56.9013 30.8731 57.172 29.6129 57.6976C28.3528 58.2233 27.2094 58.9936 26.2488 59.9639L22.3389 63.9132V88.6576L48.9293 87.2806C61.9037 86.6087 74.3928 82.13 84.8374 74.4036L96.7434 65.5962C98.6571 64.1806 99.0947 61.4979 97.7298 59.5475C96.4349 57.6968 93.9473 57.1302 91.9786 58.2377Z" fill="#FFD3A3"/>
<path d="M97.7298 59.5476C97.3233 58.9668 96.7818 58.4935 96.1517 58.1685C96.379 59.7216 95.767 61.3429 94.4214 62.3383L82.5154 71.1457C72.0708 78.872 59.5817 83.3507 46.6073 84.0227L22.3389 85.2793V88.6577L48.9293 87.2807C61.9037 86.6087 74.3928 82.13 84.8374 74.4037L96.7434 65.5963C98.6571 64.1806 99.0945 61.498 97.7298 59.5476Z" fill="#FFBE84"/>
<path d="M98.93 58.708C98.0994 57.5132 96.8524 56.6718 95.4336 56.3487C94.0148 56.0255 92.5265 56.2439 91.2604 56.9611L90.1949 57.5605V46.992H90.5792C93.4021 46.992 95.6987 44.6954 95.6987 41.8725V39.8801C95.6987 37.0664 93.4172 34.7756 90.607 34.7606C90.605 34.6961 90.6023 34.6319 90.5984 34.5675C90.4148 31.4819 87.9493 29.0119 84.8637 28.8218C84.2771 28.7847 83.6883 28.8321 83.1153 28.9626C81.9871 27.2636 80.0986 26.2374 78.0153 26.2374C77.9282 26.2374 77.8407 26.2393 77.7536 26.2428C77.2659 23.3471 74.7407 21.1339 71.7084 21.1339C70.7775 21.1339 69.8787 21.3391 69.0587 21.7336C68.642 20.9342 68.0557 20.2354 67.3407 19.6862C67.0323 19.4501 66.6426 19.3462 66.2575 19.3973C65.8724 19.4485 65.5234 19.6505 65.2873 19.959C65.0511 20.2675 64.9472 20.6571 64.9984 21.0422C65.0496 21.4273 65.2516 21.7764 65.5601 22.0125C66.1038 22.4286 66.5067 23.017 66.6941 23.6687C66.7825 23.9767 66.9444 24.2585 67.1658 24.4901C67.3872 24.7216 67.6616 24.8959 67.9653 24.9979C68.2707 25.1 68.5963 25.1263 68.9142 25.0747C69.2321 25.0231 69.5326 24.8951 69.7901 24.7016C70.3427 24.2851 71.0164 24.0608 71.7084 24.063C73.4734 24.063 74.9094 25.499 74.9094 27.2611C74.9137 27.2806 74.8707 28.219 75.6454 28.8455C75.878 29.0342 76.1502 29.1678 76.4418 29.2363C76.7333 29.3047 77.0366 29.3062 77.3288 29.2407C77.5543 29.1912 77.7846 29.1662 78.0155 29.1663C79.2491 29.1663 80.3521 29.8555 80.8944 30.9663C81.342 31.8809 82.4011 32.2999 83.3586 31.9414C83.7812 31.7826 84.2329 31.7157 84.6834 31.7453C86.2665 31.8428 87.5804 33.1586 87.6745 34.7417L87.6755 34.7602H39.562L39.5629 34.7401C39.6577 33.1577 40.9722 31.8422 42.5552 31.7451C43.0121 31.7168 43.457 31.783 43.8794 31.9416C44.8375 32.3005 45.8964 31.8805 46.3434 30.9651C46.8851 29.8555 47.9883 29.1663 49.222 29.1663C49.4534 29.1663 49.6842 29.1913 49.9086 29.2407C50.2009 29.3063 50.5042 29.3048 50.7958 29.2363C51.0873 29.1678 51.3596 29.0342 51.5922 28.8455C51.8237 28.659 52.0101 28.4226 52.1375 28.154C52.265 27.8854 52.3302 27.5916 52.3282 27.2943L52.328 27.2638C52.328 25.499 53.764 24.063 55.5288 24.063C56.2276 24.063 56.8912 24.2839 57.448 24.7018C57.7052 24.8952 58.0056 25.0231 58.3233 25.0747C58.6409 25.1263 58.9664 25.0999 59.2716 24.9979C59.5753 24.8959 59.8498 24.7216 60.0713 24.4901C60.2928 24.2586 60.4548 23.9767 60.5433 23.6687C60.7352 23.01 61.1324 22.4297 61.6771 22.0125C61.9857 21.7765 62.1878 21.4275 62.2391 21.0425C62.2904 20.6574 62.1866 20.2677 61.9506 19.9592C61.7145 19.6507 61.3656 19.4485 60.9805 19.3973C60.5955 19.346 60.2058 19.4498 59.8973 19.6858C59.182 20.2349 58.5955 20.9338 58.1787 21.7334C57.3585 21.3387 56.4596 21.1337 55.5288 21.1337C52.4966 21.1337 49.9713 23.3469 49.4838 26.2427C49.3967 26.239 49.3094 26.2372 49.2222 26.2372C47.1388 26.2372 45.2502 27.2634 44.122 28.9624C43.5498 28.8322 42.9618 28.7846 42.3761 28.8213C39.2903 29.0107 36.8238 31.4797 36.6391 34.5651C36.6352 34.6301 36.6322 34.6954 36.6305 34.7604C33.8203 34.7754 31.5385 37.0662 31.5385 39.8799V41.8723C31.5385 44.6952 33.8353 46.9918 36.6582 46.9918H37.0425V55.4365H33.5908C30.4636 55.4365 27.4083 56.711 25.2084 58.9332L23.804 60.3517V59.2833C23.804 56.3022 21.3789 53.8769 18.3978 53.8769H5.4064C2.4253 53.8773 0 56.3024 0 59.2835V68.3719C0 69.181 0.655587 69.8366 1.46467 69.8366C2.27376 69.8366 2.92934 69.181 2.92934 68.3719V59.2835C2.92934 57.9176 4.04035 56.8064 5.4064 56.8064H18.3973C19.7629 56.8064 20.8741 57.9174 20.8741 59.2835V89.3899C20.8741 90.7556 19.7631 91.8668 18.3973 91.8668H5.4064C4.04054 91.8668 2.92934 90.7558 2.92934 89.3899V74.0353C2.92934 73.2262 2.27376 72.5706 1.46467 72.5706C0.655587 72.5706 0 73.2262 0 74.0353V89.3899C0 92.371 2.4253 94.7961 5.4064 94.7961H18.3973C21.1547 94.7961 23.4363 92.7212 23.7632 90.0506L49.005 88.7433C54.4017 88.4628 59.7454 87.5368 64.9219 85.9853C65.1061 85.93 65.2777 85.8391 65.4268 85.7175C65.5759 85.596 65.6995 85.4463 65.7907 85.2769C65.8819 85.1076 65.9389 84.9219 65.9583 84.7305C65.9778 84.5392 65.9593 84.3459 65.904 84.1616C65.8488 83.9773 65.7579 83.8057 65.6364 83.6566C65.5149 83.5075 65.3651 83.3838 65.1958 83.2926C65.0264 83.2014 64.8407 83.1444 64.6493 83.125C64.4579 83.1056 64.2646 83.1241 64.0804 83.1795C59.1283 84.6639 54.0162 85.5497 48.8535 85.8179L23.8035 87.1154V64.5157L27.2898 60.9942C28.9433 59.3239 31.2399 58.366 33.5904 58.366H39.5911C40.927 58.3658 42.2385 58.0071 43.3887 57.3275L49.428 53.7576C49.7853 53.5446 50.1825 53.407 50.595 53.3534C51.0075 53.2998 51.4267 53.3313 51.8265 53.4459C52.2274 53.5574 52.6011 53.7499 52.9246 54.0115C53.2481 54.2731 53.5146 54.5982 53.7076 54.9668C53.9955 55.5078 54.1143 56.1228 54.0486 56.7321C53.9828 57.3414 53.7356 57.9169 53.3389 58.384L46.2635 66.7656C45.458 67.7202 45.2841 69.0167 45.8106 70.1496C46.3368 71.2825 47.4396 71.9861 48.6884 71.9861H63.9868C68.2637 71.9861 72.495 70.8776 76.2231 68.7808L92.6966 59.5143C93.3294 59.1557 94.0733 59.0465 94.7825 59.208C95.4917 59.3695 96.115 59.7902 96.5301 60.3875C97.4466 61.6973 97.158 63.468 95.8727 64.419L83.9665 73.2264C79.4574 76.5609 74.5338 79.2949 69.3196 81.3596C68.5676 81.6572 68.1994 82.5085 68.4972 83.2606C68.7951 84.0126 69.6463 84.3809 70.3982 84.0829C75.8485 81.9247 80.995 79.0668 85.7083 75.5812L97.6147 66.7738C100.186 64.8713 100.764 61.3286 98.93 58.708ZM36.6576 44.0626C35.4498 44.0626 34.4672 43.0801 34.4672 41.8725V39.8801C34.4672 38.6722 35.4498 37.6897 36.6576 37.6897H90.579C91.7867 37.6897 92.7692 38.6722 92.7692 39.8801V41.8725C92.7692 43.0801 91.7867 44.0626 90.579 44.0626H36.6576ZM87.2655 57.8466C87.2655 58.3133 87.2429 58.7822 87.1982 59.2462L74.7869 66.2276C71.4887 68.0805 67.7697 69.0547 63.9866 69.0568H48.6882C48.6498 69.0568 48.5326 69.0568 48.467 68.9156C48.4014 68.774 48.4769 68.6843 48.5019 68.6551L55.5771 60.2734C57.1642 58.3934 57.4468 55.7732 56.2973 53.5976C55.5228 52.1324 54.2181 51.0772 52.6231 50.6265C51.0282 50.1764 49.3641 50.3922 47.9374 51.2356L41.898 54.8055C41.3103 55.1527 40.6517 55.3629 39.9715 55.4203V46.9916H87.2657V57.8466H87.2655ZM38.8722 20.3375C38.8722 21.1444 39.5249 21.7943 40.332 21.7971H40.3369C41.1182 21.7971 41.7578 21.1802 41.7994 20.4072C41.9 20.3099 42.1398 20.1545 42.3054 20.0471C42.9934 19.601 44.145 18.8545 44.145 17.2988C44.145 15.7431 42.9936 14.9965 42.3054 14.5505C42.1753 14.4661 41.9998 14.3521 41.8814 14.2601C41.9996 14.1679 42.1753 14.054 42.3054 13.9699C42.9934 13.524 44.145 12.7774 44.145 11.222C44.145 10.4148 43.4922 9.7647 42.685 9.76197H42.6803C41.8988 9.76197 41.2592 10.3789 41.2178 11.152C41.1171 11.2491 40.8774 11.4045 40.712 11.512C40.024 11.9578 38.8722 12.7044 38.8722 14.2601C38.8722 15.8157 40.0236 16.5623 40.7118 17.0084C40.8419 17.0927 41.0177 17.2068 41.136 17.2988C41.0178 17.391 40.8419 17.505 40.7118 17.5892C40.0236 18.0352 38.8722 18.782 38.8722 20.3375ZM50.2334 15.7796C50.2334 16.5866 50.886 17.2365 51.6932 17.2392H51.698C52.4794 17.2392 53.119 16.6223 53.1606 15.8493C53.2611 15.7521 53.501 15.5966 53.6666 15.4892C54.3546 15.0432 55.5062 14.2966 55.5062 12.7409C55.5062 11.1852 54.3546 10.4386 53.6666 9.9926C53.5365 9.90824 53.3609 9.79438 53.2426 9.7024C53.3607 9.61023 53.5365 9.49637 53.6666 9.4122C54.3546 8.96616 55.5062 8.21976 55.5062 6.66409C55.5062 5.85715 54.8533 5.20703 54.0464 5.2043H54.0415C53.2602 5.2043 52.6204 5.82122 52.579 6.59417C52.4782 6.69143 52.2386 6.84688 52.073 6.95429C51.385 7.40033 50.2334 8.14672 50.2334 9.7024C50.2334 11.2581 51.3848 12.0045 52.073 12.4505C52.2031 12.5349 52.3788 12.6489 52.4972 12.7409C52.379 12.8331 52.2031 12.9471 52.073 13.0313C51.3848 13.4772 50.2334 14.2239 50.2334 15.7796ZM83.0916 17.2988C83.0916 18.8545 84.2431 19.601 84.9313 20.0471C85.0967 20.1543 85.3357 20.3096 85.4367 20.4066C85.4543 20.7889 85.621 21.1492 85.9009 21.4102C86.1808 21.6712 86.5517 21.8123 86.9343 21.8033C87.317 21.7942 87.6809 21.6358 87.9481 21.3618C88.2154 21.0879 88.3648 20.7202 88.3644 20.3375C88.3644 18.7818 87.213 18.0352 86.5248 17.5892C86.3948 17.5048 86.219 17.3908 86.1006 17.2988C86.2188 17.2066 86.3948 17.0926 86.5248 17.0084C87.2128 16.5623 88.3644 15.8157 88.3644 14.2601C88.3644 12.7044 87.2128 11.9578 86.5246 11.512C86.3592 11.4045 86.1196 11.2491 86.0188 11.152C85.9774 10.3789 85.3379 9.76197 84.5563 9.76197H84.5516C83.7445 9.7647 83.0916 10.4148 83.0916 11.222C83.0916 12.7774 84.2431 13.524 84.9313 13.9699C85.0613 14.0542 85.2369 14.1681 85.3552 14.2601C85.2371 14.3522 85.0613 14.4663 84.9313 14.5505C84.2432 14.9965 83.0916 15.7431 83.0916 17.2988ZM71.7307 12.7407C71.7307 14.2964 72.8821 15.043 73.5703 15.489C73.7357 15.5962 73.9747 15.7515 74.0757 15.8486C74.0934 16.2309 74.26 16.5911 74.5399 16.8521C74.8198 17.1131 75.1908 17.2542 75.5734 17.2452C75.956 17.2362 76.3199 17.0777 76.5872 16.8038C76.8544 16.5298 77.0039 16.1622 77.0035 15.7794C77.0035 14.2237 75.8521 13.4772 75.1638 13.0311C75.0338 12.9467 74.858 12.8327 74.7397 12.7407C74.8578 12.6485 75.0338 12.5345 75.1638 12.4503C75.8519 12.0043 77.0035 11.2579 77.0035 9.70221C77.0035 8.14653 75.8521 7.40013 75.1638 6.95409C74.9982 6.84668 74.7586 6.69123 74.6579 6.59398C74.6164 5.82102 73.9769 5.2041 73.1953 5.2041H73.1904C72.3835 5.20684 71.7307 5.85695 71.7307 6.66389C71.7307 8.21957 72.8821 8.96596 73.5703 9.41201C73.7003 9.49637 73.8759 9.61023 73.9943 9.70221C73.8761 9.79438 73.7003 9.90824 73.5703 9.99241C72.8823 10.4384 71.7307 11.185 71.7307 12.7407Z" fill="black"/>
</g>
<defs>
<clipPath id="clip0_41_186">
<rect width="100" height="100" fill="white"/>
</clipPath>
</defs>
</svg>
