<svg width="100" height="100" viewBox="0 0 100 100" fill="none" xmlns="http://www.w3.org/2000/svg">
<g clip-path="url(#clip0_41_202)">
<path d="M98.4579 70.1905C98.5373 54.5003 85.8821 41.7165 70.1917 41.6371C54.5013 41.5577 41.7174 54.2127 41.6379 69.9029C41.5585 85.5931 54.2137 98.3769 69.9041 98.4563C85.5945 98.5357 98.3785 85.8807 98.4579 70.1905Z" fill="#F69E5E"/>
<path d="M70.0266 94.9219C54.9264 94.9219 42.5799 83.1411 41.6719 68.2698C41.6354 68.855 41.6169 69.4412 41.6162 70.0276C41.6162 85.718 54.3359 98.4376 70.0266 98.4376C85.7172 98.4376 98.4371 85.718 98.4371 70.0276C98.4371 69.4372 98.4168 68.8514 98.3814 68.2698C97.4732 83.1411 85.1268 94.9219 70.0266 94.9219Z" fill="#EA8740"/>
<path d="M90.2023 70.1234C90.2685 58.9694 81.2799 49.8736 70.1257 49.8074C58.9714 49.7412 49.8755 58.7297 49.8093 69.8837C49.7431 81.0377 58.7317 90.1335 69.886 90.1997C81.0402 90.2659 90.1362 81.2774 90.2023 70.1234Z" fill="#EA8740"/>
<path d="M70.0268 86.7084C59.4648 86.7084 50.7979 78.6006 49.907 68.2698C49.8562 68.8543 49.8305 69.4408 49.8301 70.0276C49.8301 81.1817 58.8725 90.2241 70.027 90.2241C81.1813 90.2241 90.2238 81.1819 90.2238 70.0276C90.2238 69.4352 90.1969 68.8493 90.1469 68.2698C89.2557 78.6006 80.5889 86.7084 70.0268 86.7084Z" fill="#F69E5E"/>
<path d="M70.0271 41.6176C72.0662 41.6176 74.0543 41.8342 75.9717 42.2424L60.3063 27.8361C58.592 26.2596 56.3481 25.3847 54.0191 25.3848H46.1436L63.3066 42.4195C65.507 41.8859 67.7631 41.6167 70.0271 41.6176Z" fill="#EDBCA4"/>
<path d="M52.2613 28.9004C54.5902 28.9004 56.8342 29.7753 58.5484 31.3518L69.7166 41.6223C69.8203 41.6211 69.9232 41.6176 70.0271 41.6176C72.0662 41.6176 74.0543 41.8342 75.9717 42.2424L60.3063 27.8361C58.592 26.2596 56.3481 25.3847 54.0191 25.3848H46.1436L49.6857 28.9004H52.2613Z" fill="#EAAB92"/>
<path d="M27.5922 93.4146L27.9574 93.5783C29.6266 94.3264 30.9624 95.6622 31.7104 97.3314L31.874 97.6969C32.3166 98.6844 33.7186 98.6844 34.1611 97.6969L34.3248 97.3316C35.0728 95.6624 36.4086 94.3266 38.0777 93.5785L38.443 93.4148C39.4305 92.9722 39.4305 91.5701 38.443 91.1275L38.0777 90.9638C36.4085 90.2158 35.0728 88.88 34.3248 87.2107L34.1611 86.8455C33.7186 85.858 32.3166 85.858 31.874 86.8455L31.7104 87.2109C30.9623 88.8801 29.6266 90.2158 27.9574 90.9638L27.5922 91.1275C26.6047 91.5701 26.6047 92.972 27.5922 93.4146ZM17.6996 68.0426L18.0648 68.2062C19.734 68.9543 21.0698 70.2901 21.8178 71.9594L21.9816 72.3248C22.4242 73.3123 23.8262 73.3123 24.2687 72.3248L24.4324 71.9596C25.1805 70.2904 26.5162 68.9545 28.1854 68.2064L28.5506 68.0428C29.5381 67.6002 29.5381 66.198 28.5506 65.7554L28.1854 65.5918C26.5162 64.8437 25.1804 63.5079 24.4324 61.8387L24.2687 61.4734C23.8262 60.4859 22.4242 60.4859 21.9816 61.4734L21.8178 61.8388C21.0697 63.508 19.734 64.8437 18.0648 65.5918L17.6996 65.7554C16.7121 66.198 16.7121 67.6 17.6996 68.0426Z" fill="#FFE08C"/>
<path d="M1.5625 6.21131V31.5695H8.71601C10.3063 31.5695 11.8694 31.9824 13.2522 32.7677C14.6351 33.553 15.7904 34.6838 16.6051 36.0496C17.9754 38.3468 19.7988 40.3411 21.9645 41.9112C24.1301 43.4812 26.5925 44.5942 29.202 45.1822L31.1432 45.6197C34.0371 46.2718 36.675 47.7617 38.7275 49.9035L46.3236 57.8297C48.274 59.8648 51.4781 60.0115 53.6064 58.1633C55.8273 56.2346 56.0467 52.8639 54.0943 50.6637L35.8379 30.0892C34.2193 28.265 35.5143 25.3848 37.9531 25.3848H54.0191C56.348 25.3848 58.592 26.2597 60.3062 27.8361L77.4121 43.5672C79.3223 45.3238 82.2279 45.4258 84.2566 43.8072C86.6795 41.874 86.9152 38.2762 84.7652 36.0435L56.1281 6.30409C54.3178 4.42411 52.0614 3.03249 49.5688 2.25866C47.0762 1.48483 44.4284 1.35392 41.8717 1.87811L24.8437 5.36932C22.1124 5.92931 19.3315 6.21148 16.5434 6.21151L1.5625 6.21131Z" fill="#FFD6BD"/>
<path d="M55.3631 54.6476C53.2348 56.4958 50.0309 56.349 48.0805 54.314L40.4846 46.388C38.4321 44.2463 35.7943 42.7564 32.9004 42.1042L30.9592 41.6667C28.3498 41.0787 25.8873 39.9658 23.7217 38.3957C21.5562 36.8257 19.7328 34.8313 18.3625 32.5341C17.5478 31.1684 16.3926 30.0375 15.0097 29.2522C13.6269 28.4669 12.0639 28.0541 10.4736 28.0541H1.5625V31.5697H8.71582C10.3061 31.5697 11.8691 31.9825 13.2519 32.7678C14.6348 33.5532 15.79 34.684 16.6047 36.0498C17.9749 38.347 19.7984 40.3413 21.9639 41.9114C24.1295 43.4814 26.592 44.5943 29.2014 45.1824L31.1426 45.6199C34.0365 46.272 36.6743 47.7619 38.7268 49.9037L46.3227 57.8298C48.273 59.865 51.477 60.0117 53.6053 58.1634C54.6912 57.2205 55.2971 55.9326 55.4061 54.6054C55.391 54.6193 55.3789 54.6339 55.3631 54.6476ZM86.0127 40.2914C83.9842 41.9099 81.0785 41.808 79.1684 40.0513L62.0629 24.3203C60.3487 22.7438 58.1047 21.8688 55.7758 21.8689H37.2486C33.8797 21.8689 32.0908 25.8478 34.3268 28.3677L35.6713 29.883C34.3168 28.0562 35.6035 25.3845 37.9523 25.3845H54.018C56.3469 25.3846 58.5908 26.2595 60.3051 27.8359L77.4105 43.5669C79.3207 45.3236 82.2264 45.4255 84.2549 43.807C85.443 42.8591 86.1037 41.5107 86.2166 40.1195C86.1502 40.1781 86.0826 40.2357 86.0127 40.2914Z" fill="#F9C6AA"/>
<path d="M19.3236 40.0249C19.0872 40.1766 18.8123 40.2573 18.5314 40.2574C18.3201 40.2577 18.1111 40.2122 17.919 40.1241C17.7268 40.036 17.556 39.9073 17.4184 39.7468C16.6213 38.8202 15.9056 37.8265 15.2793 36.7769C13.891 34.45 11.3453 33.0043 8.63535 33.0043H1.46777C1.27503 33.0043 1.08417 32.9664 0.906096 32.8926C0.728018 32.8189 0.566211 32.7108 0.429913 32.5745C0.293615 32.4382 0.185496 32.2764 0.111731 32.0984C0.0379665 31.9203 0 31.7294 0 31.5367V6.13005C0 5.93731 0.0379665 5.74646 0.111731 5.56839C0.185496 5.39032 0.293615 5.22853 0.429913 5.09225C0.566211 4.95597 0.728018 4.84787 0.906096 4.77413C1.08417 4.70039 1.27503 4.66245 1.46777 4.66247H16.4777C19.1723 4.66189 21.86 4.38915 24.4998 3.84841L41.5611 0.350755C47.2934 -0.823659 53.1387 0.990208 57.1973 5.20505L77.059 25.8306C77.1927 25.9695 77.2977 26.1333 77.3681 26.3127C77.4385 26.4921 77.4728 26.6837 77.4692 26.8764C77.4655 27.0691 77.424 27.2592 77.3468 27.4358C77.2697 27.6124 77.1586 27.7722 77.0197 27.9058C76.8809 28.0396 76.7171 28.1446 76.5377 28.2151C76.3583 28.2855 76.1667 28.3198 75.974 28.3162C75.7813 28.3125 75.5912 28.271 75.4145 28.1938C75.2379 28.1167 75.0782 28.0055 74.9445 27.8666L55.0826 7.24099C51.7258 3.75505 46.8914 2.25505 42.1504 3.22615L25.0891 6.724C22.2609 7.30368 19.3637 7.59763 16.4775 7.59763H2.93535V30.0693H8.63535C12.3734 30.0693 15.8852 32.0633 17.8002 35.2736C18.34 36.1779 18.9566 37.0341 19.6434 37.8326C19.8266 38.0455 19.9448 38.3065 19.9841 38.5846C20.0234 38.8627 19.982 39.1462 19.8649 39.4015C19.7479 39.6568 19.56 39.8732 19.3236 40.0249Z" fill="black"/>
<path d="M95.4178 54.1479C92.9581 50.2415 89.6313 46.9547 85.6955 44.5424C86.9053 43.3826 87.6504 41.8012 87.7607 40.1166C87.8212 39.1807 87.6861 38.2425 87.364 37.3617C87.0419 36.481 86.54 35.6769 85.89 35.0008L81.1338 30.0617C80.8638 29.7813 80.4935 29.6197 80.1043 29.6123C79.7151 29.6049 79.339 29.7525 79.0586 30.0225C78.7782 30.2924 78.6165 30.6628 78.6092 31.0519C78.6018 31.4411 78.7494 31.8173 79.0193 32.0977L83.7756 37.0367C84.5273 37.8176 84.9023 38.843 84.8314 39.9246C84.7605 41.0063 84.2549 41.9742 83.4076 42.65C81.9309 43.8285 79.8494 43.7557 78.4586 42.4766L61.3191 26.7154C59.332 24.8845 56.7282 23.8693 54.0262 23.8721H37.9287C36.2127 23.8721 34.7096 24.8443 34.0059 26.4094C33.3021 27.9744 33.5727 29.744 34.7115 31.0273L53.0037 51.641C53.341 52.0189 53.5994 52.4603 53.7637 52.9394C53.928 53.4185 53.995 53.9256 53.9605 54.4309C53.9215 55.0427 53.7352 55.636 53.4176 56.1604C53.2101 56.4084 53.0082 56.661 52.8119 56.918C52.7586 56.9699 52.7072 57.0234 52.6504 57.0727C51.1068 58.4131 48.7896 58.3072 47.3754 56.8311L39.7646 48.8897C37.5104 46.5334 34.6103 44.8955 31.4285 44.1815L29.4834 43.7432C27.4546 43.2871 25.5188 42.4873 23.7598 41.3783C23.4304 41.1709 23.032 41.1028 22.6524 41.189C22.2728 41.2752 21.943 41.5087 21.7355 41.8381C21.5281 42.1675 21.46 42.5658 21.5462 42.9454C21.6324 43.325 21.8659 43.6549 22.1953 43.8623C24.2369 45.1491 26.4836 46.0773 28.8381 46.6066L30.783 47.0451C33.4022 47.6328 35.7895 48.9811 37.6451 50.9207L43.2463 56.765C41.207 60.8746 40.1318 65.45 40.1318 70.0676C40.132 86.5727 53.5602 100 70.0658 100C86.5713 100 99.9996 86.5727 99.9996 70.0682C99.9996 64.4152 98.4152 58.91 95.4178 54.1479ZM59.3322 28.8764L71.6209 40.177C71.1029 40.15 70.5843 40.1365 70.0656 40.1363C67.9591 40.1371 65.8586 40.3606 63.799 40.8031L49.6975 26.8078H54.0262C55.9921 26.8055 57.8866 27.5441 59.3322 28.8764ZM36.6832 27.6133C36.7682 27.4242 37.1092 26.8076 37.9287 26.8076H45.5305L60.5332 41.6975C57.4883 42.7198 54.6277 44.2255 52.0613 46.1568L36.9072 29.0795C36.3633 28.4664 36.5982 27.8022 36.6832 27.6133ZM70.0658 97.0647C55.1789 97.0647 43.0676 84.9541 43.0676 70.0682C43.0676 66.2578 43.8775 62.4795 45.4227 59.0273C46.6838 60.26 48.3775 60.9497 50.141 60.9488C50.2195 60.9488 50.298 60.9465 50.3766 60.9438C49.085 63.7193 48.3621 66.8107 48.3621 70.0684C48.3621 82.0354 58.0984 91.7711 70.0662 91.7711C74.6387 91.7711 79.0129 90.3654 82.7156 87.7061C83.374 87.233 83.5242 86.3162 83.0514 85.6578C82.5785 84.9994 81.6615 84.849 81.0031 85.3219C77.8025 87.6209 74.0207 88.8357 70.0662 88.8357C59.7172 88.8357 51.2977 80.4166 51.2977 70.0684C51.2977 65.8779 52.6785 62.0039 55.009 58.8772C55.305 58.5712 55.5716 58.238 55.8051 57.882C59.2502 53.8568 64.365 51.301 70.0664 51.301C80.4154 51.301 88.835 59.7199 88.835 70.0684C88.835 74.2637 87.4818 78.2305 84.9219 81.5398C84.6918 81.8484 84.5921 82.2349 84.6442 82.6162C84.6963 82.9975 84.896 83.3431 85.2004 83.5786C85.5049 83.814 85.8895 83.9206 86.2717 83.8752C86.6539 83.8298 87.003 83.6362 87.2438 83.3359C90.2051 79.5076 91.7703 74.9199 91.7703 70.0686C91.7703 58.1018 82.034 48.366 70.0664 48.366C65.0684 48.366 60.4602 50.065 56.7871 52.9145C56.5631 51.7285 56.0229 50.6207 55.2 49.6936L54.0174 48.3609C58.6428 44.9412 64.284 43.0719 70.066 43.0719C71.8332 43.0719 73.6022 43.2473 75.3316 43.5891L76.4719 44.6377C78.2098 46.2359 80.5561 46.7693 82.7063 46.2131C86.8864 48.4318 90.4125 51.7067 92.9336 55.7117C95.6359 60.0049 97.0645 64.9695 97.0645 70.0684C97.0643 84.9541 84.9527 97.0647 70.0658 97.0647ZM39.0201 89.8689L38.6543 89.7051C37.3102 89.1034 36.2346 88.0278 35.633 86.6836L35.4689 86.3178C35.024 85.325 34.0717 84.7082 32.9838 84.7082C31.8957 84.7082 30.9436 85.325 30.4986 86.3176L30.3346 86.6838C29.733 88.0279 28.6575 89.1033 27.3135 89.7049L26.9473 89.8691C25.9545 90.3143 25.3377 91.2664 25.3379 92.3545C25.3381 93.4422 25.9547 94.3945 26.9475 94.8393L27.3131 95.0031C28.6571 95.6049 29.7326 96.6803 30.3344 98.0242L30.4984 98.3906C30.9434 99.3834 31.8957 100 32.9836 100C34.0715 100 35.0238 99.3834 35.4688 98.3904L35.6328 98.0244C36.2345 96.6805 37.3099 95.6051 38.6537 95.0033L39.0199 94.8393C40.0127 94.3943 40.6295 93.4422 40.6295 92.3545C40.6301 91.2664 40.0133 90.3141 39.0201 89.8689ZM32.984 96.759C32.0923 94.8093 30.5287 93.2458 28.5791 92.3541C30.5288 91.4626 32.0925 89.8989 32.984 87.9492C33.8756 89.8989 35.4392 91.4625 37.3889 92.3541C35.4392 93.2457 33.8756 94.8093 32.984 96.759ZM25.7213 72.6039C26.323 71.2597 27.3986 70.1842 28.7428 69.5826L29.1084 69.4186C30.1014 68.9736 30.718 68.0215 30.718 66.9332C30.718 65.8453 30.1012 64.893 29.1088 64.4484L28.7424 64.2842C27.3982 63.6825 26.3227 62.6069 25.7211 61.2627L25.557 60.8969C25.1121 59.9041 24.1598 59.2873 23.0719 59.2873C21.9838 59.2873 21.0316 59.9041 20.5865 60.8971L20.4225 61.2631C19.8207 62.6072 18.745 63.6828 17.4008 64.2844L17.0354 64.4482C16.0424 64.8932 15.4258 65.8453 15.4258 66.9332C15.4258 68.0213 16.0426 68.9736 17.0354 69.4186L17.4012 69.5826C18.7451 70.1843 19.8206 71.2596 20.4225 72.6035L20.5865 72.9699C21.0314 73.9627 21.9838 74.5795 23.0719 74.5795C24.1598 74.5795 25.1121 73.9627 25.557 72.9701L25.7213 72.6039ZM23.0721 71.3383C22.1805 69.3885 20.6168 67.8249 18.667 66.9334C20.6168 66.042 22.1805 64.4784 23.0721 62.5287C23.9637 64.4785 25.5274 66.0421 27.4771 66.9336C25.5274 67.825 23.9637 69.3886 23.0721 71.3383Z" fill="black"/>
</g>
<defs>
<clipPath id="clip0_41_202">
<rect width="100" height="100" fill="white"/>
</clipPath>
</defs>
</svg>
