<svg width="100" height="100" viewBox="0 0 100 100" fill="none" xmlns="http://www.w3.org/2000/svg">
<g clip-path="url(#clip0_41_219)">
<path d="M50 86.4014C70.1039 86.4014 86.4014 70.1039 86.4014 50C86.4014 29.8961 70.1039 13.5986 50 13.5986C29.8961 13.5986 13.5986 29.8961 13.5986 50C13.5986 70.1039 29.8961 86.4014 50 86.4014Z" fill="#F69E5E"/>
<path d="M57.4643 10.7039L34.5547 25.5962L35.1283 26.5896C36.4346 28.8521 39.3275 29.6273 41.5898 28.321L60.8225 17.2171L57.4643 10.7039Z" fill="#F89580"/>
<path d="M49.0525 11.3236L25.334 21.3783L27.1008 24.4385C28.407 26.701 31.3 27.4761 33.5623 26.1699L54.9631 13.8142L49.0525 11.3236Z" fill="#FFB09E"/>
<path d="M62.7715 47.5346C62.503 43.9901 59.6067 41.1358 56.0588 40.9141C53.8334 40.7751 51.809 41.6485 50.4012 43.1176C50.3496 43.1722 50.2874 43.2157 50.2184 43.2455C50.1494 43.2752 50.075 43.2905 49.9999 43.2905C49.9248 43.2905 49.8505 43.2752 49.7815 43.2455C49.7125 43.2157 49.6503 43.1722 49.5987 43.1176C48.1908 41.6485 46.1664 40.7751 43.941 40.9141C40.3932 41.1358 37.4971 43.9899 37.2283 47.5346C37.0469 49.9286 38.0379 52.0987 39.6869 53.5307H39.6867L49.285 61.8667C49.4833 62.0389 49.7371 62.1337 49.9998 62.1337C50.2625 62.1337 50.5163 62.0389 50.7147 61.8667L60.3129 53.5307H60.3127C61.9619 52.0987 62.9529 49.9286 62.7715 47.5346Z" fill="#1BB880"/>
<path d="M62.7713 47.5345C62.5537 44.6624 60.6109 42.2437 57.9941 41.3113C58.4904 42.2048 58.7875 43.1951 58.865 44.2142C59.0465 46.6082 58.0555 48.7783 56.4064 50.2103H56.4066L46.8084 58.5462C46.6548 58.6796 46.467 58.7674 46.2662 58.7996C46.0653 58.8318 45.8595 58.8073 45.6719 58.7287L49.285 61.8665C49.4833 62.0388 49.7371 62.1336 49.9998 62.1336C50.2625 62.1336 50.5163 62.0388 50.7146 61.8665L60.3129 53.5306H60.3127C61.9617 52.0986 62.9527 49.9285 62.7713 47.5345Z" fill="#147D58"/>
<path d="M90.3266 1.84688L87.0346 6.13711C85.8956 7.62159 84.3419 8.73496 82.5701 9.3364C80.7982 9.93785 78.8879 10.0004 77.0805 9.51602L58.4776 4.53125C57.3547 4.23037 56.1724 4.23037 55.0495 4.53125L21.0688 13.6367C20.0596 13.9072 19.4606 14.9445 19.7309 15.9537L20.2518 17.8992C20.9272 20.4213 23.5213 21.9199 26.0453 21.2445L52.9567 14.0332C54.0795 13.7323 55.2618 13.7323 56.3847 14.0332C57.5075 14.3341 58.5314 14.9253 59.3534 15.7473L69.6225 26.0164H60.2223C59.6432 26.0159 59.0697 26.1296 58.5347 26.351C57.9996 26.5725 57.5135 26.8973 57.1041 27.3068C56.2944 28.1186 55.7975 29.243 55.8141 30.4854C55.8465 32.9129 57.8938 34.8334 60.3215 34.8334H78.753C81.2377 34.8334 83.6981 34.344 85.9937 33.3932C88.2893 32.4423 90.3751 31.0486 92.1321 29.2916L98.2494 23.1742C98.3401 23.0835 98.4121 22.9759 98.4611 22.8574C98.5102 22.7389 98.5354 22.6119 98.5354 22.4836V2.44141C98.5354 2.18241 98.4325 1.93401 98.2494 1.75087C98.0662 1.56773 97.8178 1.46484 97.5588 1.46484H91.1012C90.9514 1.46489 90.8037 1.49937 90.6694 1.56561C90.5351 1.63185 90.4178 1.72809 90.3266 1.84688Z" fill="#FFCEBF"/>
<path d="M97.5582 1.46484H94.6285V18.5775C94.6285 18.8365 94.5256 19.0849 94.3426 19.2682L88.2252 25.3855C86.4682 27.1425 84.3824 28.5362 82.0868 29.4871C79.7912 30.438 77.3308 30.9274 74.8461 30.9273H56.4146C56.2197 30.9273 56.0271 30.9148 55.8379 30.8908C56.0779 33.1232 58.0299 34.8336 60.3209 34.8336H78.7523C81.2371 34.8336 83.6975 34.3442 85.9931 33.3933C88.2887 32.4425 90.3745 31.0488 92.1314 29.2918L98.2488 23.1744C98.3395 23.0837 98.4114 22.9761 98.4605 22.8576C98.5096 22.7391 98.5348 22.612 98.5348 22.4838V2.44141C98.5348 2.18241 98.4319 1.93401 98.2487 1.75087C98.0656 1.56773 97.8172 1.46484 97.5582 1.46484Z" fill="#FFB09E"/>
<path d="M42.535 89.2961L65.4445 74.4037L64.8709 73.4103C63.5646 71.1478 60.6717 70.3728 58.4094 71.6789L39.1768 82.7828L42.535 89.2961Z" fill="#CA6E59"/>
<path d="M50.9477 88.6764L74.6662 78.6217L72.8994 75.5615C71.5932 73.299 68.7002 72.5238 66.4379 73.8301L45.0371 86.1858L50.9477 88.6764Z" fill="#D78878"/>
<path d="M9.67383 98.1532L12.9658 93.8629C14.1049 92.3784 15.6585 91.2651 17.4304 90.6636C19.2022 90.0622 21.1126 89.9997 22.9199 90.484L41.523 95.4688C42.646 95.7696 43.8283 95.7696 44.9512 95.4688L78.9316 86.3633C79.9408 86.0928 80.5398 85.0555 80.2695 84.0463L79.7486 82.1008C79.0732 79.5787 76.4791 78.0801 73.9551 78.7555L47.0438 85.9668C45.9209 86.2677 44.7386 86.2677 43.6158 85.9668C42.4929 85.6659 41.469 85.0748 40.6471 84.2528L30.3779 73.9836H39.7781C40.3572 73.9841 40.9307 73.8704 41.4657 73.649C42.0008 73.4276 42.4869 73.1028 42.8963 72.6932C43.7061 71.8815 44.2029 70.7571 44.1863 69.5147C44.1539 67.0871 42.1066 65.1666 39.6789 65.1666H21.2475C18.7627 65.1666 16.3023 65.656 14.0067 66.6069C11.7111 67.5577 9.62532 68.9514 7.86836 70.7084L1.75078 76.8258C1.66009 76.9165 1.58815 77.0242 1.53909 77.1427C1.49003 77.2612 1.4648 77.3882 1.46484 77.5164V97.5586C1.46484 97.8176 1.56773 98.066 1.75087 98.2492C1.93401 98.4323 2.18241 98.5352 2.44141 98.5352H8.89902C9.20254 98.5352 9.48887 98.394 9.67383 98.1532Z" fill="#EB9C8D"/>
<path d="M80.2695 84.0461L79.7486 82.1006C79.6084 81.575 79.3784 81.0777 79.0687 80.6305C78.9712 80.9299 78.8003 81.2002 78.5717 81.4169C78.3431 81.6335 78.064 81.7896 77.7598 81.8709L43.7791 90.9766C42.6562 91.2776 41.4739 91.2776 40.351 90.9766L21.7479 85.9918C19.9405 85.5075 18.0301 85.57 16.2583 86.1715C14.4865 86.7729 12.9328 87.8863 11.7937 89.3707L8.50195 93.661C8.41076 93.7798 8.29344 93.8761 8.15909 93.9423C8.02474 94.0086 7.87695 94.043 7.72715 94.043H1.46484V97.5586C1.46484 97.8176 1.56773 98.066 1.75087 98.2492C1.93401 98.4323 2.18241 98.5352 2.44141 98.5352H8.89902C9.04882 98.5352 9.19661 98.5007 9.33096 98.4345C9.46531 98.3682 9.58262 98.272 9.67383 98.1532L12.9658 93.8629C14.1049 92.3784 15.6585 91.2651 17.4304 90.6636C19.2022 90.0622 21.1126 89.9997 22.9199 90.484L41.523 95.4688C42.6459 95.7698 43.8283 95.7698 44.9512 95.4688L78.9316 86.3633C79.9408 86.0928 80.5398 85.0555 80.2695 84.0461Z" fill="#D78878"/>
<path d="M34.5557 25.5961L35.1293 26.5895C36.4355 28.852 39.3285 29.6272 41.5908 28.3209L60.8234 17.217" stroke="black" stroke-width="2" stroke-miterlimit="10" stroke-linecap="round" stroke-linejoin="round"/>
<path d="M25.333 21.3783L27.0998 24.4384C28.4061 26.7009 31.299 27.4761 33.5613 26.1699L54.9621 13.8142M65.8176 26.0164H75.0141M62.7711 47.5345C62.5025 43.99 59.6062 41.1357 56.0584 40.914C53.833 40.775 51.8086 41.6484 50.4008 43.1175C50.3492 43.1721 50.287 43.2156 50.218 43.2453C50.149 43.2751 50.0746 43.2904 49.9995 43.2904C49.9244 43.2904 49.85 43.2751 49.7811 43.2453C49.7121 43.2156 49.6498 43.1721 49.5982 43.1175C48.1904 41.6484 46.166 40.775 43.9406 40.914C40.3928 41.1357 37.4967 43.9898 37.2279 47.5345C37.0465 49.9285 38.0375 52.0986 39.6865 53.5306H39.6863L49.2846 61.8665C49.4829 62.0388 49.7367 62.1336 49.9994 62.1336C50.2621 62.1336 50.5159 62.0388 50.7143 61.8665L60.3125 53.5306H60.3123C61.9615 52.0986 62.9525 49.9285 62.7711 47.5345Z" stroke="black" stroke-width="2" stroke-miterlimit="10" stroke-linecap="round" stroke-linejoin="round"/>
<path d="M32.336 10.6176L21.0688 13.6367C20.0596 13.9072 19.4606 14.9445 19.7309 15.9537L20.2518 17.8992C20.9272 20.4213 23.5213 21.9199 26.0453 21.2445L52.9567 14.0332C54.0795 13.7323 55.2618 13.7323 56.3847 14.0332C57.5075 14.3341 58.5314 14.9253 59.3534 15.7473L69.6225 26.0164H60.2223C59.6432 26.0159 59.0697 26.1296 58.5347 26.351C57.9996 26.5725 57.5135 26.8973 57.1041 27.3068C56.2944 28.1186 55.7975 29.243 55.8141 30.4853C55.8465 32.9129 57.8938 34.8334 60.3215 34.8334H78.753C81.2377 34.8334 83.6981 34.344 85.9937 33.3931C88.2893 32.4423 90.3751 31.0486 92.1321 29.2916L98.2494 23.1742C98.3401 23.0835 98.4121 22.9759 98.4611 22.8574C98.5102 22.7389 98.5354 22.6118 98.5354 22.4836V2.44141C98.5354 2.18241 98.4325 1.93401 98.2494 1.75087C98.0662 1.56773 97.8178 1.46484 97.5588 1.46484H91.1012C90.7977 1.46484 90.5114 1.60605 90.3264 1.84688L87.0344 6.13711C85.8954 7.62159 84.3417 8.73496 82.5699 9.3364C80.798 9.93784 78.8877 10.0004 77.0803 9.51601L58.4776 4.53125C57.3547 4.23037 56.1724 4.23037 55.0495 4.53125L39.0483 8.81894M65.4452 74.4039L64.8715 73.4105C63.5653 71.148 60.6723 70.373 58.41 71.6791L39.1774 82.783" stroke="black" stroke-width="2" stroke-miterlimit="10" stroke-linecap="round" stroke-linejoin="round"/>
<path d="M74.6664 78.6217L72.8996 75.5615C71.5934 73.299 68.7004 72.5238 66.4381 73.8301L45.0373 86.1858M34.1818 73.9836H24.9854" stroke="black" stroke-width="2" stroke-miterlimit="10" stroke-linecap="round" stroke-linejoin="round"/>
<path d="M26.6166 65.1666H21.2475C18.7627 65.1666 16.3023 65.656 14.0067 66.6068C11.7111 67.5577 9.62532 68.9514 7.86836 70.7084L1.75078 76.8258C1.66009 76.9164 1.58815 77.0241 1.53909 77.1426C1.49003 77.2611 1.4648 77.3881 1.46484 77.5164V97.5586C1.46484 97.8176 1.56773 98.066 1.75087 98.2491C1.93401 98.4322 2.18241 98.5351 2.44141 98.5351H8.89902C9.20254 98.5351 9.48887 98.3939 9.67383 98.1531L12.9658 93.8629C14.1049 92.3784 15.6585 91.265 17.4304 90.6636C19.2022 90.0621 21.1126 89.9996 22.9199 90.484L41.523 95.4687C42.646 95.7695 43.8283 95.7695 44.9512 95.4687L78.9316 86.3633C79.9408 86.0927 80.5398 85.0554 80.2695 84.0463L79.7486 82.1008C79.0732 79.5787 76.4791 78.0801 73.9551 78.7554L47.0437 85.9668C45.9209 86.2676 44.7386 86.2676 43.6158 85.9668C42.4929 85.6659 41.469 85.0747 40.6471 84.2527L30.3779 73.9836H39.7781C40.3572 73.9841 40.9307 73.8704 41.4657 73.6489C42.0008 73.4275 42.4869 73.1027 42.8963 72.6931C43.7061 71.8814 44.2029 70.757 44.1863 69.5146C44.1539 67.0871 42.1066 65.1666 39.6789 65.1666H33.4525M84.9617 39.8302C84.4183 37.9594 83.7246 36.1355 82.8873 34.3763M73.9625 77.4023C81.5863 70.7301 86.4014 60.9273 86.4014 50C86.4014 48.8961 86.3522 47.8035 86.2561 46.7246" stroke="black" stroke-width="2" stroke-miterlimit="10" stroke-linecap="round" stroke-linejoin="round"/>
<path d="M26.0375 22.5977C18.4137 29.2701 13.5986 39.0727 13.5986 50C13.5986 55.592 14.8598 60.8896 17.1129 65.6238" stroke="black" stroke-width="2" stroke-miterlimit="10" stroke-linecap="round" stroke-linejoin="round"/>
</g>
<defs>
<clipPath id="clip0_41_219">
<rect width="100" height="100" fill="white"/>
</clipPath>
</defs>
</svg>
